<?xml version="1.0" encoding="utf-8" standalone="no"?>
<!DOCTYPE svg PUBLIC "-//W3C//DTD SVG 1.1//EN"
  "http://www.w3.org/Graphics/SVG/1.1/DTD/svg11.dtd">
<svg xmlns:xlink="http://www.w3.org/1999/xlink" width="644.000781pt" height="529.124219pt" viewBox="0 0 644.000781 529.124219" xmlns="http://www.w3.org/2000/svg" version="1.1">
 <metadata>
  <rdf:RDF xmlns:dc="http://purl.org/dc/elements/1.1/" xmlns:cc="http://creativecommons.org/ns#" xmlns:rdf="http://www.w3.org/1999/02/22-rdf-syntax-ns#">
   <cc:Work>
    <dc:type rdf:resource="http://purl.org/dc/dcmitype/StillImage"/>
    <dc:date>2025-02-12T14:22:35.396516</dc:date>
    <dc:format>image/svg+xml</dc:format>
    <dc:creator>
     <cc:Agent>
      <dc:title>Matplotlib v3.9.2, https://matplotlib.org/</dc:title>
     </cc:Agent>
    </dc:creator>
   </cc:Work>
  </rdf:RDF>
 </metadata>
 <defs>
  <style type="text/css">*{stroke-linejoin: round; stroke-linecap: butt}</style>
 </defs>
 <g id="figure_1">
  <g id="patch_1">
   <path d="M 0 529.124219 
L 644.000781 529.124219 
L 644.000781 0 
L 0 0 
z
" style="fill: #ffffff"/>
  </g>
  <g id="axes_1">
   <g id="patch_2">
    <path d="M 92.990625 460.597969 
L 595.190625 460.597969 
L 595.190625 17.077969 
L 92.990625 17.077969 
z
" style="fill: #ffffff"/>
   </g>
   <g id="patch_3">
    <path d="M -8.137806 460.597969 
L -1.5334 460.597969 
L -1.5334 460.597082 
L -8.137806 460.597082 
z
" clip-path="url(#pdfeb25d3e8)" style="fill: #118ab2; stroke: #ffffff; stroke-width: 0.456545; stroke-linejoin: miter"/>
   </g>
   <g id="patch_4">
    <path d="M -1.5334 460.597969 
L 5.071005 460.597969 
L 5.071005 460.597969 
L -1.5334 460.597969 
z
" clip-path="url(#pdfeb25d3e8)" style="fill: #118ab2; stroke: #ffffff; stroke-width: 0.456545; stroke-linejoin: miter"/>
   </g>
   <g id="patch_5">
    <path d="M 5.071005 460.597969 
L 11.675411 460.597969 
L 11.675411 460.594421 
L 5.071005 460.594421 
z
" clip-path="url(#pdfeb25d3e8)" style="fill: #118ab2; stroke: #ffffff; stroke-width: 0.456545; stroke-linejoin: miter"/>
   </g>
   <g id="patch_6">
    <path d="M 11.675411 460.597969 
L 18.279817 460.597969 
L 18.279817 460.597082 
L 11.675411 460.597082 
z
" clip-path="url(#pdfeb25d3e8)" style="fill: #118ab2; stroke: #ffffff; stroke-width: 0.456545; stroke-linejoin: miter"/>
   </g>
   <g id="patch_7">
    <path d="M 18.279817 460.597969 
L 24.884223 460.597969 
L 24.884223 460.592647 
L 18.279817 460.592647 
z
" clip-path="url(#pdfeb25d3e8)" style="fill: #118ab2; stroke: #ffffff; stroke-width: 0.456545; stroke-linejoin: miter"/>
   </g>
   <g id="patch_8">
    <path d="M 24.884223 460.597969 
L 31.488629 460.597969 
L 31.488629 460.590872 
L 24.884223 460.590872 
z
" clip-path="url(#pdfeb25d3e8)" style="fill: #118ab2; stroke: #ffffff; stroke-width: 0.456545; stroke-linejoin: miter"/>
   </g>
   <g id="patch_9">
    <path d="M 31.488629 460.597969 
L 38.093035 460.597969 
L 38.093035 460.590872 
L 31.488629 460.590872 
z
" clip-path="url(#pdfeb25d3e8)" style="fill: #118ab2; stroke: #ffffff; stroke-width: 0.456545; stroke-linejoin: miter"/>
   </g>
   <g id="patch_10">
    <path d="M 38.093035 460.597969 
L 44.697441 460.597969 
L 44.697441 460.584663 
L 38.093035 460.584663 
z
" clip-path="url(#pdfeb25d3e8)" style="fill: #118ab2; stroke: #ffffff; stroke-width: 0.456545; stroke-linejoin: miter"/>
   </g>
   <g id="patch_11">
    <path d="M 44.697441 460.597969 
L 51.301847 460.597969 
L 51.301847 460.572245 
L 44.697441 460.572245 
z
" clip-path="url(#pdfeb25d3e8)" style="fill: #118ab2; stroke: #ffffff; stroke-width: 0.456545; stroke-linejoin: miter"/>
   </g>
   <g id="patch_12">
    <path d="M 51.301847 460.597969 
L 57.906253 460.597969 
L 57.906253 460.553617 
L 51.301847 460.553617 
z
" clip-path="url(#pdfeb25d3e8)" style="fill: #118ab2; stroke: #ffffff; stroke-width: 0.456545; stroke-linejoin: miter"/>
   </g>
   <g id="patch_13">
    <path d="M 57.906253 460.597969 
L 64.510658 460.597969 
L 64.510658 460.542972 
L 57.906253 460.542972 
z
" clip-path="url(#pdfeb25d3e8)" style="fill: #118ab2; stroke: #ffffff; stroke-width: 0.456545; stroke-linejoin: miter"/>
   </g>
   <g id="patch_14">
    <path d="M 64.510658 460.597969 
L 71.115064 460.597969 
L 71.115064 460.480879 
L 64.510658 460.480879 
z
" clip-path="url(#pdfeb25d3e8)" style="fill: #118ab2; stroke: #ffffff; stroke-width: 0.456545; stroke-linejoin: miter"/>
   </g>
   <g id="patch_15">
    <path d="M 71.115064 460.597969 
L 77.71947 460.597969 
L 77.71947 460.401933 
L 71.115064 460.401933 
z
" clip-path="url(#pdfeb25d3e8)" style="fill: #118ab2; stroke: #ffffff; stroke-width: 0.456545; stroke-linejoin: miter"/>
   </g>
   <g id="patch_16">
    <path d="M 77.71947 460.597969 
L 84.323876 460.597969 
L 84.323876 460.348711 
L 77.71947 460.348711 
z
" clip-path="url(#pdfeb25d3e8)" style="fill: #118ab2; stroke: #ffffff; stroke-width: 0.456545; stroke-linejoin: miter"/>
   </g>
   <g id="patch_17">
    <path d="M 84.323876 460.597969 
L 90.928282 460.597969 
L 90.928282 460.127838 
L 84.323876 460.127838 
z
" clip-path="url(#pdfeb25d3e8)" style="fill: #118ab2; stroke: #ffffff; stroke-width: 0.456545; stroke-linejoin: miter"/>
   </g>
   <g id="patch_18">
    <path d="M 90.928282 460.597969 
L 97.532688 460.597969 
L 97.532688 459.958413 
L 90.928282 459.958413 
z
" clip-path="url(#pdfeb25d3e8)" style="fill: #118ab2; stroke: #ffffff; stroke-width: 0.456545; stroke-linejoin: miter"/>
   </g>
   <g id="patch_19">
    <path d="M 97.532688 460.597969 
L 104.137094 460.597969 
L 104.137094 459.189349 
L 97.532688 459.189349 
z
" clip-path="url(#pdfeb25d3e8)" style="fill: #118ab2; stroke: #ffffff; stroke-width: 0.456545; stroke-linejoin: miter"/>
   </g>
   <g id="patch_20">
    <path d="M 104.137094 460.597969 
L 110.7415 460.597969 
L 110.7415 458.16127 
L 104.137094 458.16127 
z
" clip-path="url(#pdfeb25d3e8)" style="fill: #118ab2; stroke: #ffffff; stroke-width: 0.456545; stroke-linejoin: miter"/>
   </g>
   <g id="patch_21">
    <path d="M 110.7415 460.597969 
L 117.345906 460.597969 
L 117.345906 457.635255 
L 110.7415 457.635255 
z
" clip-path="url(#pdfeb25d3e8)" style="fill: #118ab2; stroke: #ffffff; stroke-width: 0.456545; stroke-linejoin: miter"/>
   </g>
   <g id="patch_22">
    <path d="M 117.345906 460.597969 
L 123.950311 460.597969 
L 123.950311 455.688202 
L 117.345906 455.688202 
z
" clip-path="url(#pdfeb25d3e8)" style="fill: #118ab2; stroke: #ffffff; stroke-width: 0.456545; stroke-linejoin: miter"/>
   </g>
   <g id="patch_23">
    <path d="M 123.950311 460.597969 
L 130.554717 460.597969 
L 130.554717 451.692974 
L 123.950311 451.692974 
z
" clip-path="url(#pdfeb25d3e8)" style="fill: #118ab2; stroke: #ffffff; stroke-width: 0.456545; stroke-linejoin: miter"/>
   </g>
   <g id="patch_24">
    <path d="M 130.554717 460.597969 
L 137.159123 460.597969 
L 137.159123 444.462711 
L 130.554717 444.462711 
z
" clip-path="url(#pdfeb25d3e8)" style="fill: #118ab2; stroke: #ffffff; stroke-width: 0.456545; stroke-linejoin: miter"/>
   </g>
   <g id="patch_25">
    <path d="M 137.159123 460.597969 
L 143.763529 460.597969 
L 143.763529 434.140227 
L 137.159123 434.140227 
z
" clip-path="url(#pdfeb25d3e8)" style="fill: #118ab2; stroke: #ffffff; stroke-width: 0.456545; stroke-linejoin: miter"/>
   </g>
   <g id="patch_26">
    <path d="M 143.763529 460.597969 
L 150.367935 460.597969 
L 150.367935 413.956519 
L 143.763529 413.956519 
z
" clip-path="url(#pdfeb25d3e8)" style="fill: #118ab2; stroke: #ffffff; stroke-width: 0.456545; stroke-linejoin: miter"/>
   </g>
   <g id="patch_27">
    <path d="M 150.367935 460.597969 
L 156.972341 460.597969 
L 156.972341 394.860321 
L 150.367935 394.860321 
z
" clip-path="url(#pdfeb25d3e8)" style="fill: #118ab2; stroke: #ffffff; stroke-width: 0.456545; stroke-linejoin: miter"/>
   </g>
   <g id="patch_28">
    <path d="M 156.972341 460.597969 
L 163.576747 460.597969 
L 163.576747 385.651072 
L 156.972341 385.651072 
z
" clip-path="url(#pdfeb25d3e8)" style="fill: #118ab2; stroke: #ffffff; stroke-width: 0.456545; stroke-linejoin: miter"/>
   </g>
   <g id="patch_29">
    <path d="M 163.576747 460.597969 
L 170.181153 460.597969 
L 170.181153 378.637247 
L 163.576747 378.637247 
z
" clip-path="url(#pdfeb25d3e8)" style="fill: #118ab2; stroke: #ffffff; stroke-width: 0.456545; stroke-linejoin: miter"/>
   </g>
   <g id="patch_30">
    <path d="M 170.181153 460.597969 
L 176.785559 460.597969 
L 176.785559 373.556282 
L 170.181153 373.556282 
z
" clip-path="url(#pdfeb25d3e8)" style="fill: #118ab2; stroke: #ffffff; stroke-width: 0.456545; stroke-linejoin: miter"/>
   </g>
   <g id="patch_31">
    <path d="M 176.785559 460.597969 
L 183.389964 460.597969 
L 183.389964 369.065198 
L 176.785559 369.065198 
z
" clip-path="url(#pdfeb25d3e8)" style="fill: #118ab2; stroke: #ffffff; stroke-width: 0.456545; stroke-linejoin: miter"/>
   </g>
   <g id="patch_32">
    <path d="M 183.389964 460.597969 
L 189.99437 460.597969 
L 189.99437 364.672576 
L 183.389964 364.672576 
z
" clip-path="url(#pdfeb25d3e8)" style="fill: #118ab2; stroke: #ffffff; stroke-width: 0.456545; stroke-linejoin: miter"/>
   </g>
   <g id="patch_33">
    <path d="M 189.99437 460.597969 
L 196.598776 460.597969 
L 196.598776 364.565244 
L 189.99437 364.565244 
z
" clip-path="url(#pdfeb25d3e8)" style="fill: #118ab2; stroke: #ffffff; stroke-width: 0.456545; stroke-linejoin: miter"/>
   </g>
   <g id="patch_34">
    <path d="M 196.598776 460.597969 
L 203.203182 460.597969 
L 203.203182 370.428579 
L 196.598776 370.428579 
z
" clip-path="url(#pdfeb25d3e8)" style="fill: #118ab2; stroke: #ffffff; stroke-width: 0.456545; stroke-linejoin: miter"/>
   </g>
   <g id="patch_35">
    <path d="M 203.203182 460.597969 
L 209.807588 460.597969 
L 209.807588 385.973068 
L 203.203182 385.973068 
z
" clip-path="url(#pdfeb25d3e8)" style="fill: #118ab2; stroke: #ffffff; stroke-width: 0.456545; stroke-linejoin: miter"/>
   </g>
   <g id="patch_36">
    <path d="M 209.807588 460.597969 
L 216.411994 460.597969 
L 216.411994 395.431575 
L 209.807588 395.431575 
z
" clip-path="url(#pdfeb25d3e8)" style="fill: #118ab2; stroke: #ffffff; stroke-width: 0.456545; stroke-linejoin: miter"/>
   </g>
   <g id="patch_37">
    <path d="M 216.411994 460.597969 
L 223.0164 460.597969 
L 223.0164 403.068103 
L 216.411994 403.068103 
z
" clip-path="url(#pdfeb25d3e8)" style="fill: #118ab2; stroke: #ffffff; stroke-width: 0.456545; stroke-linejoin: miter"/>
   </g>
   <g id="patch_38">
    <path d="M 223.0164 460.597969 
L 229.620806 460.597969 
L 229.620806 411.570381 
L 223.0164 411.570381 
z
" clip-path="url(#pdfeb25d3e8)" style="fill: #118ab2; stroke: #ffffff; stroke-width: 0.456545; stroke-linejoin: miter"/>
   </g>
   <g id="patch_39">
    <path d="M 229.620806 460.597969 
L 236.225212 460.597969 
L 236.225212 415.452955 
L 229.620806 415.452955 
z
" clip-path="url(#pdfeb25d3e8)" style="fill: #118ab2; stroke: #ffffff; stroke-width: 0.456545; stroke-linejoin: miter"/>
   </g>
   <g id="patch_40">
    <path d="M 236.225212 460.597969 
L 242.829617 460.597969 
L 242.829617 418.70307 
L 236.225212 418.70307 
z
" clip-path="url(#pdfeb25d3e8)" style="fill: #118ab2; stroke: #ffffff; stroke-width: 0.456545; stroke-linejoin: miter"/>
   </g>
   <g id="patch_41">
    <path d="M 242.829617 460.597969 
L 249.434023 460.597969 
L 249.434023 422.927154 
L 242.829617 422.927154 
z
" clip-path="url(#pdfeb25d3e8)" style="fill: #118ab2; stroke: #ffffff; stroke-width: 0.456545; stroke-linejoin: miter"/>
   </g>
   <g id="patch_42">
    <path d="M 249.434023 460.597969 
L 256.038429 460.597969 
L 256.038429 424.115788 
L 249.434023 424.115788 
z
" clip-path="url(#pdfeb25d3e8)" style="fill: #118ab2; stroke: #ffffff; stroke-width: 0.456545; stroke-linejoin: miter"/>
   </g>
   <g id="patch_43">
    <path d="M 256.038429 460.597969 
L 262.642835 460.597969 
L 262.642835 426.730782 
L 256.038429 426.730782 
z
" clip-path="url(#pdfeb25d3e8)" style="fill: #118ab2; stroke: #ffffff; stroke-width: 0.456545; stroke-linejoin: miter"/>
   </g>
   <g id="patch_44">
    <path d="M 262.642835 460.597969 
L 269.247241 460.597969 
L 269.247241 427.102451 
L 262.642835 427.102451 
z
" clip-path="url(#pdfeb25d3e8)" style="fill: #118ab2; stroke: #ffffff; stroke-width: 0.456545; stroke-linejoin: miter"/>
   </g>
   <g id="patch_45">
    <path d="M 269.247241 460.597969 
L 275.851647 460.597969 
L 275.851647 427.506055 
L 269.247241 427.506055 
z
" clip-path="url(#pdfeb25d3e8)" style="fill: #118ab2; stroke: #ffffff; stroke-width: 0.456545; stroke-linejoin: miter"/>
   </g>
   <g id="patch_46">
    <path d="M 275.851647 460.597969 
L 282.456053 460.597969 
L 282.456053 427.011086 
L 275.851647 427.011086 
z
" clip-path="url(#pdfeb25d3e8)" style="fill: #118ab2; stroke: #ffffff; stroke-width: 0.456545; stroke-linejoin: miter"/>
   </g>
   <g id="patch_47">
    <path d="M 282.456053 460.597969 
L 289.060459 460.597969 
L 289.060459 426.246458 
L 282.456053 426.246458 
z
" clip-path="url(#pdfeb25d3e8)" style="fill: #118ab2; stroke: #ffffff; stroke-width: 0.456545; stroke-linejoin: miter"/>
   </g>
   <g id="patch_48">
    <path d="M 289.060459 460.597969 
L 295.664865 460.597969 
L 295.664865 425.425946 
L 289.060459 425.425946 
z
" clip-path="url(#pdfeb25d3e8)" style="fill: #118ab2; stroke: #ffffff; stroke-width: 0.456545; stroke-linejoin: miter"/>
   </g>
   <g id="patch_49">
    <path d="M 295.664865 460.597969 
L 302.26927 460.597969 
L 302.26927 423.560501 
L 295.664865 423.560501 
z
" clip-path="url(#pdfeb25d3e8)" style="fill: #118ab2; stroke: #ffffff; stroke-width: 0.456545; stroke-linejoin: miter"/>
   </g>
   <g id="patch_50">
    <path d="M 302.26927 460.597969 
L 308.873676 460.597969 
L 308.873676 421.970038 
L 302.26927 421.970038 
z
" clip-path="url(#pdfeb25d3e8)" style="fill: #118ab2; stroke: #ffffff; stroke-width: 0.456545; stroke-linejoin: miter"/>
   </g>
   <g id="patch_51">
    <path d="M 308.873676 460.597969 
L 315.478082 460.597969 
L 315.478082 419.897912 
L 308.873676 419.897912 
z
" clip-path="url(#pdfeb25d3e8)" style="fill: #118ab2; stroke: #ffffff; stroke-width: 0.456545; stroke-linejoin: miter"/>
   </g>
   <g id="patch_52">
    <path d="M 315.478082 460.597969 
L 322.082488 460.597969 
L 322.082488 417.253646 
L 315.478082 417.253646 
z
" clip-path="url(#pdfeb25d3e8)" style="fill: #118ab2; stroke: #ffffff; stroke-width: 0.456545; stroke-linejoin: miter"/>
   </g>
   <g id="patch_53">
    <path d="M 322.082488 460.597969 
L 328.686894 460.597969 
L 328.686894 413.998209 
L 322.082488 413.998209 
z
" clip-path="url(#pdfeb25d3e8)" style="fill: #118ab2; stroke: #ffffff; stroke-width: 0.456545; stroke-linejoin: miter"/>
   </g>
   <g id="patch_54">
    <path d="M 328.686894 460.597969 
L 335.2913 460.597969 
L 335.2913 410.701082 
L 328.686894 410.701082 
z
" clip-path="url(#pdfeb25d3e8)" style="fill: #118ab2; stroke: #ffffff; stroke-width: 0.456545; stroke-linejoin: miter"/>
   </g>
   <g id="patch_55">
    <path d="M 335.2913 460.597969 
L 341.895706 460.597969 
L 341.895706 407.231868 
L 335.2913 407.231868 
z
" clip-path="url(#pdfeb25d3e8)" style="fill: #118ab2; stroke: #ffffff; stroke-width: 0.456545; stroke-linejoin: miter"/>
   </g>
   <g id="patch_56">
    <path d="M 341.895706 460.597969 
L 348.500112 460.597969 
L 348.500112 403.336876 
L 341.895706 403.336876 
z
" clip-path="url(#pdfeb25d3e8)" style="fill: #118ab2; stroke: #ffffff; stroke-width: 0.456545; stroke-linejoin: miter"/>
   </g>
   <g id="patch_57">
    <path d="M 348.500112 460.597969 
L 355.104518 460.597969 
L 355.104518 399.776297 
L 348.500112 399.776297 
z
" clip-path="url(#pdfeb25d3e8)" style="fill: #118ab2; stroke: #ffffff; stroke-width: 0.456545; stroke-linejoin: miter"/>
   </g>
   <g id="patch_58">
    <path d="M 355.104518 460.597969 
L 361.708923 460.597969 
L 361.708923 395.753571 
L 355.104518 395.753571 
z
" clip-path="url(#pdfeb25d3e8)" style="fill: #118ab2; stroke: #ffffff; stroke-width: 0.456545; stroke-linejoin: miter"/>
   </g>
   <g id="patch_59">
    <path d="M 361.708923 460.597969 
L 368.313329 460.597969 
L 368.313329 391.622625 
L 361.708923 391.622625 
z
" clip-path="url(#pdfeb25d3e8)" style="fill: #118ab2; stroke: #ffffff; stroke-width: 0.456545; stroke-linejoin: miter"/>
   </g>
   <g id="patch_60">
    <path d="M 368.313329 460.597969 
L 374.917735 460.597969 
L 374.917735 388.088658 
L 368.313329 388.088658 
z
" clip-path="url(#pdfeb25d3e8)" style="fill: #118ab2; stroke: #ffffff; stroke-width: 0.456545; stroke-linejoin: miter"/>
   </g>
   <g id="patch_61">
    <path d="M 374.917735 460.597969 
L 381.522141 460.597969 
L 381.522141 377.409583 
L 374.917735 377.409583 
z
" clip-path="url(#pdfeb25d3e8)" style="fill: #118ab2; stroke: #ffffff; stroke-width: 0.456545; stroke-linejoin: miter"/>
   </g>
   <g id="patch_62">
    <path d="M 381.522141 460.597969 
L 388.126547 460.597969 
L 388.126547 350.05327 
L 381.522141 350.05327 
z
" clip-path="url(#pdfeb25d3e8)" style="fill: #118ab2; stroke: #ffffff; stroke-width: 0.456545; stroke-linejoin: miter"/>
   </g>
   <g id="patch_63">
    <path d="M 388.126547 460.597969 
L 394.730953 460.597969 
L 394.730953 380.334154 
L 388.126547 380.334154 
z
" clip-path="url(#pdfeb25d3e8)" style="fill: #118ab2; stroke: #ffffff; stroke-width: 0.456545; stroke-linejoin: miter"/>
   </g>
   <g id="patch_64">
    <path d="M 394.730953 460.597969 
L 401.335359 460.597969 
L 401.335359 377.653519 
L 394.730953 377.653519 
z
" clip-path="url(#pdfeb25d3e8)" style="fill: #118ab2; stroke: #ffffff; stroke-width: 0.456545; stroke-linejoin: miter"/>
   </g>
   <g id="patch_65">
    <path d="M 401.335359 460.597969 
L 407.939765 460.597969 
L 407.939765 376.332717 
L 401.335359 376.332717 
z
" clip-path="url(#pdfeb25d3e8)" style="fill: #118ab2; stroke: #ffffff; stroke-width: 0.456545; stroke-linejoin: miter"/>
   </g>
   <g id="patch_66">
    <path d="M 407.939765 460.597969 
L 414.544171 460.597969 
L 414.544171 375.093522 
L 407.939765 375.093522 
z
" clip-path="url(#pdfeb25d3e8)" style="fill: #118ab2; stroke: #ffffff; stroke-width: 0.456545; stroke-linejoin: miter"/>
   </g>
   <g id="patch_67">
    <path d="M 414.544171 460.597969 
L 421.148576 460.597969 
L 421.148576 374.207369 
L 414.544171 374.207369 
z
" clip-path="url(#pdfeb25d3e8)" style="fill: #118ab2; stroke: #ffffff; stroke-width: 0.456545; stroke-linejoin: miter"/>
   </g>
   <g id="patch_68">
    <path d="M 421.148576 460.597969 
L 427.752982 460.597969 
L 427.752982 374.005124 
L 421.148576 374.005124 
z
" clip-path="url(#pdfeb25d3e8)" style="fill: #118ab2; stroke: #ffffff; stroke-width: 0.456545; stroke-linejoin: miter"/>
   </g>
   <g id="patch_69">
    <path d="M 427.752982 460.597969 
L 434.357388 460.597969 
L 434.357388 374.556863 
L 427.752982 374.556863 
z
" clip-path="url(#pdfeb25d3e8)" style="fill: #118ab2; stroke: #ffffff; stroke-width: 0.456545; stroke-linejoin: miter"/>
   </g>
   <g id="patch_70">
    <path d="M 434.357388 460.597969 
L 440.961794 460.597969 
L 440.961794 375.795171 
L 434.357388 375.795171 
z
" clip-path="url(#pdfeb25d3e8)" style="fill: #118ab2; stroke: #ffffff; stroke-width: 0.456545; stroke-linejoin: miter"/>
   </g>
   <g id="patch_71">
    <path d="M 440.961794 460.597969 
L 447.5662 460.597969 
L 447.5662 378.322348 
L 440.961794 378.322348 
z
" clip-path="url(#pdfeb25d3e8)" style="fill: #118ab2; stroke: #ffffff; stroke-width: 0.456545; stroke-linejoin: miter"/>
   </g>
   <g id="patch_72">
    <path d="M 447.5662 460.597969 
L 454.170606 460.597969 
L 454.170606 381.469566 
L 447.5662 381.469566 
z
" clip-path="url(#pdfeb25d3e8)" style="fill: #118ab2; stroke: #ffffff; stroke-width: 0.456545; stroke-linejoin: miter"/>
   </g>
   <g id="patch_73">
    <path d="M 454.170606 460.597969 
L 460.775012 460.597969 
L 460.775012 386.54787 
L 454.170606 386.54787 
z
" clip-path="url(#pdfeb25d3e8)" style="fill: #118ab2; stroke: #ffffff; stroke-width: 0.456545; stroke-linejoin: miter"/>
   </g>
   <g id="patch_74">
    <path d="M 460.775012 460.597969 
L 467.379418 460.597969 
L 467.379418 391.260713 
L 460.775012 391.260713 
z
" clip-path="url(#pdfeb25d3e8)" style="fill: #118ab2; stroke: #ffffff; stroke-width: 0.456545; stroke-linejoin: miter"/>
   </g>
   <g id="patch_75">
    <path d="M 467.379418 460.597969 
L 473.983824 460.597969 
L 473.983824 397.411448 
L 467.379418 397.411448 
z
" clip-path="url(#pdfeb25d3e8)" style="fill: #118ab2; stroke: #ffffff; stroke-width: 0.456545; stroke-linejoin: miter"/>
   </g>
   <g id="patch_76">
    <path d="M 473.983824 460.597969 
L 480.588229 460.597969 
L 480.588229 404.804927 
L 473.983824 404.804927 
z
" clip-path="url(#pdfeb25d3e8)" style="fill: #118ab2; stroke: #ffffff; stroke-width: 0.456545; stroke-linejoin: miter"/>
   </g>
   <g id="patch_77">
    <path d="M 480.588229 460.597969 
L 487.192635 460.597969 
L 487.192635 412.116798 
L 480.588229 412.116798 
z
" clip-path="url(#pdfeb25d3e8)" style="fill: #118ab2; stroke: #ffffff; stroke-width: 0.456545; stroke-linejoin: miter"/>
   </g>
   <g id="patch_78">
    <path d="M 487.192635 460.597969 
L 493.797041 460.597969 
L 493.797041 419.850012 
L 487.192635 419.850012 
z
" clip-path="url(#pdfeb25d3e8)" style="fill: #118ab2; stroke: #ffffff; stroke-width: 0.456545; stroke-linejoin: miter"/>
   </g>
   <g id="patch_79">
    <path d="M 493.797041 460.597969 
L 500.401447 460.597969 
L 500.401447 426.943671 
L 493.797041 426.943671 
z
" clip-path="url(#pdfeb25d3e8)" style="fill: #118ab2; stroke: #ffffff; stroke-width: 0.456545; stroke-linejoin: miter"/>
   </g>
   <g id="patch_80">
    <path d="M 500.401447 460.597969 
L 507.005853 460.597969 
L 507.005853 434.043539 
L 500.401447 434.043539 
z
" clip-path="url(#pdfeb25d3e8)" style="fill: #118ab2; stroke: #ffffff; stroke-width: 0.456545; stroke-linejoin: miter"/>
   </g>
   <g id="patch_81">
    <path d="M 507.005853 460.597969 
L 513.610259 460.597969 
L 513.610259 440.23153 
L 507.005853 440.23153 
z
" clip-path="url(#pdfeb25d3e8)" style="fill: #118ab2; stroke: #ffffff; stroke-width: 0.456545; stroke-linejoin: miter"/>
   </g>
   <g id="patch_82">
    <path d="M 513.610259 460.597969 
L 520.214665 460.597969 
L 520.214665 445.930762 
L 513.610259 445.930762 
z
" clip-path="url(#pdfeb25d3e8)" style="fill: #118ab2; stroke: #ffffff; stroke-width: 0.456545; stroke-linejoin: miter"/>
   </g>
   <g id="patch_83">
    <path d="M 520.214665 460.597969 
L 526.819071 460.597969 
L 526.819071 450.247099 
L 520.214665 450.247099 
z
" clip-path="url(#pdfeb25d3e8)" style="fill: #118ab2; stroke: #ffffff; stroke-width: 0.456545; stroke-linejoin: miter"/>
   </g>
   <g id="patch_84">
    <path d="M 526.819071 460.597969 
L 533.423477 460.597969 
L 533.423477 453.53713 
L 526.819071 453.53713 
z
" clip-path="url(#pdfeb25d3e8)" style="fill: #118ab2; stroke: #ffffff; stroke-width: 0.456545; stroke-linejoin: miter"/>
   </g>
   <g id="patch_85">
    <path d="M 533.423477 460.597969 
L 540.027882 460.597969 
L 540.027882 455.821258 
L 533.423477 455.821258 
z
" clip-path="url(#pdfeb25d3e8)" style="fill: #118ab2; stroke: #ffffff; stroke-width: 0.456545; stroke-linejoin: miter"/>
   </g>
   <g id="patch_86">
    <path d="M 540.027882 460.597969 
L 546.632288 460.597969 
L 546.632288 457.603322 
L 540.027882 457.603322 
z
" clip-path="url(#pdfeb25d3e8)" style="fill: #118ab2; stroke: #ffffff; stroke-width: 0.456545; stroke-linejoin: miter"/>
   </g>
   <g id="patch_87">
    <path d="M 546.632288 460.597969 
L 553.236694 460.597969 
L 553.236694 458.681075 
L 546.632288 458.681075 
z
" clip-path="url(#pdfeb25d3e8)" style="fill: #118ab2; stroke: #ffffff; stroke-width: 0.456545; stroke-linejoin: miter"/>
   </g>
   <g id="patch_88">
    <path d="M 553.236694 460.597969 
L 559.8411 460.597969 
L 559.8411 459.551262 
L 553.236694 459.551262 
z
" clip-path="url(#pdfeb25d3e8)" style="fill: #118ab2; stroke: #ffffff; stroke-width: 0.456545; stroke-linejoin: miter"/>
   </g>
   <g id="patch_89">
    <path d="M 559.8411 460.597969 
L 566.445506 460.597969 
L 566.445506 460.034698 
L 559.8411 460.034698 
z
" clip-path="url(#pdfeb25d3e8)" style="fill: #118ab2; stroke: #ffffff; stroke-width: 0.456545; stroke-linejoin: miter"/>
   </g>
   <g id="patch_90">
    <path d="M 566.445506 460.597969 
L 573.049912 460.597969 
L 573.049912 460.304359 
L 566.445506 460.304359 
z
" clip-path="url(#pdfeb25d3e8)" style="fill: #118ab2; stroke: #ffffff; stroke-width: 0.456545; stroke-linejoin: miter"/>
   </g>
   <g id="patch_91">
    <path d="M 573.049912 460.597969 
L 579.654318 460.597969 
L 579.654318 460.451607 
L 573.049912 460.451607 
z
" clip-path="url(#pdfeb25d3e8)" style="fill: #118ab2; stroke: #ffffff; stroke-width: 0.456545; stroke-linejoin: miter"/>
   </g>
   <g id="patch_92">
    <path d="M 579.654318 460.597969 
L 586.258724 460.597969 
L 586.258724 460.536763 
L 579.654318 460.536763 
z
" clip-path="url(#pdfeb25d3e8)" style="fill: #118ab2; stroke: #ffffff; stroke-width: 0.456545; stroke-linejoin: miter"/>
   </g>
   <g id="patch_93">
    <path d="M 586.258724 460.597969 
L 592.86313 460.597969 
L 592.86313 460.574019 
L 586.258724 460.574019 
z
" clip-path="url(#pdfeb25d3e8)" style="fill: #118ab2; stroke: #ffffff; stroke-width: 0.456545; stroke-linejoin: miter"/>
   </g>
   <g id="patch_94">
    <path d="M 592.86313 460.597969 
L 599.467535 460.597969 
L 599.467535 460.588211 
L 592.86313 460.588211 
z
" clip-path="url(#pdfeb25d3e8)" style="fill: #118ab2; stroke: #ffffff; stroke-width: 0.456545; stroke-linejoin: miter"/>
   </g>
   <g id="patch_95">
    <path d="M 599.467535 460.597969 
L 606.071941 460.597969 
L 606.071941 460.595308 
L 599.467535 460.595308 
z
" clip-path="url(#pdfeb25d3e8)" style="fill: #118ab2; stroke: #ffffff; stroke-width: 0.456545; stroke-linejoin: miter"/>
   </g>
   <g id="patch_96">
    <path d="M 606.071941 460.597969 
L 612.676347 460.597969 
L 612.676347 460.597969 
L 606.071941 460.597969 
z
" clip-path="url(#pdfeb25d3e8)" style="fill: #118ab2; stroke: #ffffff; stroke-width: 0.456545; stroke-linejoin: miter"/>
   </g>
   <g id="patch_97">
    <path d="M 612.676347 460.597969 
L 619.280753 460.597969 
L 619.280753 460.597969 
L 612.676347 460.597969 
z
" clip-path="url(#pdfeb25d3e8)" style="fill: #118ab2; stroke: #ffffff; stroke-width: 0.456545; stroke-linejoin: miter"/>
   </g>
   <g id="patch_98">
    <path d="M 619.280753 460.597969 
L 625.885159 460.597969 
L 625.885159 460.597969 
L 619.280753 460.597969 
z
" clip-path="url(#pdfeb25d3e8)" style="fill: #118ab2; stroke: #ffffff; stroke-width: 0.456545; stroke-linejoin: miter"/>
   </g>
   <g id="patch_99">
    <path d="M 625.885159 460.597969 
L 632.489565 460.597969 
L 632.489565 460.597969 
L 625.885159 460.597969 
z
" clip-path="url(#pdfeb25d3e8)" style="fill: #118ab2; stroke: #ffffff; stroke-width: 0.456545; stroke-linejoin: miter"/>
   </g>
   <g id="patch_100">
    <path d="M 632.489565 460.597969 
L 639.093971 460.597969 
L 639.093971 460.597969 
L 632.489565 460.597969 
z
" clip-path="url(#pdfeb25d3e8)" style="fill: #118ab2; stroke: #ffffff; stroke-width: 0.456545; stroke-linejoin: miter"/>
   </g>
   <g id="patch_101">
    <path d="M 639.093971 460.597969 
L 645.698377 460.597969 
L 645.698377 460.597969 
L 639.093971 460.597969 
z
" clip-path="url(#pdfeb25d3e8)" style="fill: #118ab2; stroke: #ffffff; stroke-width: 0.456545; stroke-linejoin: miter"/>
   </g>
   <g id="patch_102">
    <path d="M 645.698377 460.597969 
L 652.302783 460.597969 
L 652.302783 460.597082 
L 645.698377 460.597082 
z
" clip-path="url(#pdfeb25d3e8)" style="fill: #118ab2; stroke: #ffffff; stroke-width: 0.456545; stroke-linejoin: miter"/>
   </g>
   <g id="patch_103">
    <path d="M 116.904911 460.597969 
L 182.669196 460.597969 
L 182.669196 17.077969 
L 116.904911 17.077969 
z
" clip-path="url(#pdfeb25d3e8)" style="fill: #154cac; stroke: #154cac; stroke-linejoin: miter"/>
   </g>
   <g id="matplotlib.axis_1">
    <g id="xtick_1">
     <g id="line2d_1">
      <defs>
       <path id="mc2ebba86ef" d="M 0 0 
L 0 3.5 
" style="stroke: #000000; stroke-width: 0.8"/>
      </defs>
      <g>
       <use xlink:href="#mc2ebba86ef" x="116.904911" y="460.597969" style="stroke: #000000; stroke-width: 0.8"/>
      </g>
     </g>
     <g id="text_1">
      <text style="font: 26px 'DejaVu Sans', 'Bitstream Vera Sans', 'Computer Modern Sans Serif', 'Lucida Grande', 'Verdana', 'Geneva', 'Lucid', 'Arial', 'Helvetica', 'Avant Garde', sans-serif; text-anchor: middle" x="116.904911" y="487.353906" transform="rotate(-0 116.904911 487.353906)">100</text>
     </g>
    </g>
    <g id="xtick_2">
     <g id="line2d_2">
      <g>
       <use xlink:href="#mc2ebba86ef" x="236.476339" y="460.597969" style="stroke: #000000; stroke-width: 0.8"/>
      </g>
     </g>
     <g id="text_2">
      <text style="font: 26px 'DejaVu Sans', 'Bitstream Vera Sans', 'Computer Modern Sans Serif', 'Lucida Grande', 'Verdana', 'Geneva', 'Lucid', 'Arial', 'Helvetica', 'Avant Garde', sans-serif; text-anchor: middle" x="236.476339" y="487.353906" transform="rotate(-0 236.476339 487.353906)">1000</text>
     </g>
    </g>
    <g id="xtick_3">
     <g id="line2d_3">
      <g>
       <use xlink:href="#mc2ebba86ef" x="356.047768" y="460.597969" style="stroke: #000000; stroke-width: 0.8"/>
      </g>
     </g>
     <g id="text_3">
      <text style="font: 26px 'DejaVu Sans', 'Bitstream Vera Sans', 'Computer Modern Sans Serif', 'Lucida Grande', 'Verdana', 'Geneva', 'Lucid', 'Arial', 'Helvetica', 'Avant Garde', sans-serif; text-anchor: middle" x="356.047768" y="487.353906" transform="rotate(-0 356.047768 487.353906)">10K</text>
     </g>
    </g>
    <g id="xtick_4">
     <g id="line2d_4">
      <g>
       <use xlink:href="#mc2ebba86ef" x="475.619196" y="460.597969" style="stroke: #000000; stroke-width: 0.8"/>
      </g>
     </g>
     <g id="text_4">
      <text style="font: 26px 'DejaVu Sans', 'Bitstream Vera Sans', 'Computer Modern Sans Serif', 'Lucida Grande', 'Verdana', 'Geneva', 'Lucid', 'Arial', 'Helvetica', 'Avant Garde', sans-serif; text-anchor: middle" x="475.619196" y="487.353906" transform="rotate(-0 475.619196 487.353906)">100K</text>
     </g>
    </g>
    <g id="xtick_5">
     <g id="line2d_5">
      <g>
       <use xlink:href="#mc2ebba86ef" x="595.190625" y="460.597969" style="stroke: #000000; stroke-width: 0.8"/>
      </g>
     </g>
     <g id="text_5">
      <text style="font: 26px 'DejaVu Sans', 'Bitstream Vera Sans', 'Computer Modern Sans Serif', 'Lucida Grande', 'Verdana', 'Geneva', 'Lucid', 'Arial', 'Helvetica', 'Avant Garde', sans-serif; text-anchor: middle" x="595.190625" y="487.353906" transform="rotate(-0 595.190625 487.353906)">1000K</text>
     </g>
    </g>
    <g id="text_6">
     <text style="font: 26px 'DejaVu Sans', 'Bitstream Vera Sans', 'Computer Modern Sans Serif', 'Lucida Grande', 'Verdana', 'Geneva', 'Lucid', 'Arial', 'Helvetica', 'Avant Garde', sans-serif; text-anchor: middle" x="344.090625" y="516.517031" transform="rotate(-0 344.090625 516.517031)">Read Length</text>
    </g>
   </g>
   <g id="matplotlib.axis_2">
    <g id="ytick_1">
     <g id="line2d_6">
      <defs>
       <path id="m2c9f31bc21" d="M 0 0 
L -3.5 0 
" style="stroke: #000000; stroke-width: 0.8"/>
      </defs>
      <g>
       <use xlink:href="#m2c9f31bc21" x="92.990625" y="416.245969" style="stroke: #000000; stroke-width: 0.8"/>
      </g>
     </g>
     <g id="text_7">
      <text style="font: 26px 'DejaVu Sans', 'Bitstream Vera Sans', 'Computer Modern Sans Serif', 'Lucida Grande', 'Verdana', 'Geneva', 'Lucid', 'Arial', 'Helvetica', 'Avant Garde', sans-serif; text-anchor: end" x="85.990625" y="426.123937" transform="rotate(-0 85.990625 426.123937)">50</text>
     </g>
    </g>
    <g id="ytick_2">
     <g id="line2d_7">
      <g>
       <use xlink:href="#m2c9f31bc21" x="92.990625" y="371.893969" style="stroke: #000000; stroke-width: 0.8"/>
      </g>
     </g>
     <g id="text_8">
      <text style="font: 26px 'DejaVu Sans', 'Bitstream Vera Sans', 'Computer Modern Sans Serif', 'Lucida Grande', 'Verdana', 'Geneva', 'Lucid', 'Arial', 'Helvetica', 'Avant Garde', sans-serif; text-anchor: end" x="85.990625" y="381.771937" transform="rotate(-0 85.990625 381.771937)">100</text>
     </g>
    </g>
    <g id="ytick_3">
     <g id="line2d_8">
      <g>
       <use xlink:href="#m2c9f31bc21" x="92.990625" y="327.541969" style="stroke: #000000; stroke-width: 0.8"/>
      </g>
     </g>
     <g id="text_9">
      <text style="font: 26px 'DejaVu Sans', 'Bitstream Vera Sans', 'Computer Modern Sans Serif', 'Lucida Grande', 'Verdana', 'Geneva', 'Lucid', 'Arial', 'Helvetica', 'Avant Garde', sans-serif; text-anchor: end" x="85.990625" y="337.419937" transform="rotate(-0 85.990625 337.419937)">150</text>
     </g>
    </g>
    <g id="ytick_4">
     <g id="line2d_9">
      <g>
       <use xlink:href="#m2c9f31bc21" x="92.990625" y="283.189969" style="stroke: #000000; stroke-width: 0.8"/>
      </g>
     </g>
     <g id="text_10">
      <text style="font: 26px 'DejaVu Sans', 'Bitstream Vera Sans', 'Computer Modern Sans Serif', 'Lucida Grande', 'Verdana', 'Geneva', 'Lucid', 'Arial', 'Helvetica', 'Avant Garde', sans-serif; text-anchor: end" x="85.990625" y="293.067937" transform="rotate(-0 85.990625 293.067937)">200</text>
     </g>
    </g>
    <g id="ytick_5">
     <g id="line2d_10">
      <g>
       <use xlink:href="#m2c9f31bc21" x="92.990625" y="238.837969" style="stroke: #000000; stroke-width: 0.8"/>
      </g>
     </g>
     <g id="text_11">
      <text style="font: 26px 'DejaVu Sans', 'Bitstream Vera Sans', 'Computer Modern Sans Serif', 'Lucida Grande', 'Verdana', 'Geneva', 'Lucid', 'Arial', 'Helvetica', 'Avant Garde', sans-serif; text-anchor: end" x="85.990625" y="248.715937" transform="rotate(-0 85.990625 248.715937)">250</text>
     </g>
    </g>
    <g id="ytick_6">
     <g id="line2d_11">
      <g>
       <use xlink:href="#m2c9f31bc21" x="92.990625" y="194.485969" style="stroke: #000000; stroke-width: 0.8"/>
      </g>
     </g>
     <g id="text_12">
      <text style="font: 26px 'DejaVu Sans', 'Bitstream Vera Sans', 'Computer Modern Sans Serif', 'Lucida Grande', 'Verdana', 'Geneva', 'Lucid', 'Arial', 'Helvetica', 'Avant Garde', sans-serif; text-anchor: end" x="85.990625" y="204.363937" transform="rotate(-0 85.990625 204.363937)">300</text>
     </g>
    </g>
    <g id="ytick_7">
     <g id="line2d_12">
      <g>
       <use xlink:href="#m2c9f31bc21" x="92.990625" y="150.133969" style="stroke: #000000; stroke-width: 0.8"/>
      </g>
     </g>
     <g id="text_13">
      <text style="font: 26px 'DejaVu Sans', 'Bitstream Vera Sans', 'Computer Modern Sans Serif', 'Lucida Grande', 'Verdana', 'Geneva', 'Lucid', 'Arial', 'Helvetica', 'Avant Garde', sans-serif; text-anchor: end" x="85.990625" y="160.011937" transform="rotate(-0 85.990625 160.011937)">350</text>
     </g>
    </g>
    <g id="ytick_8">
     <g id="line2d_13">
      <g>
       <use xlink:href="#m2c9f31bc21" x="92.990625" y="105.781969" style="stroke: #000000; stroke-width: 0.8"/>
      </g>
     </g>
     <g id="text_14">
      <text style="font: 26px 'DejaVu Sans', 'Bitstream Vera Sans', 'Computer Modern Sans Serif', 'Lucida Grande', 'Verdana', 'Geneva', 'Lucid', 'Arial', 'Helvetica', 'Avant Garde', sans-serif; text-anchor: end" x="85.990625" y="115.659937" transform="rotate(-0 85.990625 115.659937)">400</text>
     </g>
    </g>
    <g id="ytick_9">
     <g id="line2d_14">
      <g>
       <use xlink:href="#m2c9f31bc21" x="92.990625" y="61.429969" style="stroke: #000000; stroke-width: 0.8"/>
      </g>
     </g>
     <g id="text_15">
      <text style="font: 26px 'DejaVu Sans', 'Bitstream Vera Sans', 'Computer Modern Sans Serif', 'Lucida Grande', 'Verdana', 'Geneva', 'Lucid', 'Arial', 'Helvetica', 'Avant Garde', sans-serif; text-anchor: end" x="85.990625" y="71.307937" transform="rotate(-0 85.990625 71.307937)">450</text>
     </g>
    </g>
    <g id="ytick_10">
     <g id="line2d_15">
      <g>
       <use xlink:href="#m2c9f31bc21" x="92.990625" y="17.077969" style="stroke: #000000; stroke-width: 0.8"/>
      </g>
     </g>
     <g id="text_16">
      <text style="font: 26px 'DejaVu Sans', 'Bitstream Vera Sans', 'Computer Modern Sans Serif', 'Lucida Grande', 'Verdana', 'Geneva', 'Lucid', 'Arial', 'Helvetica', 'Avant Garde', sans-serif; text-anchor: end" x="85.990625" y="26.955937" transform="rotate(-0 85.990625 26.955937)">500</text>
     </g>
    </g>
    <g id="text_17">
     <text style="font: 26px 'DejaVu Sans', 'Bitstream Vera Sans', 'Computer Modern Sans Serif', 'Lucida Grande', 'Verdana', 'Geneva', 'Lucid', 'Arial', 'Helvetica', 'Avant Garde', sans-serif; text-anchor: middle" x="26.955938" y="238.837969" transform="rotate(-90 26.955938 238.837969)">Number of Reads (K)</text>
    </g>
   </g>
   <g id="patch_104">
    <path d="M 92.990625 460.597969 
L 92.990625 17.077969 
" style="fill: none; stroke: #000000; stroke-width: 0.8; stroke-linejoin: miter; stroke-linecap: square"/>
   </g>
   <g id="patch_105">
    <path d="M 595.190625 460.597969 
L 595.190625 17.077969 
" style="fill: none; stroke: #000000; stroke-width: 0.8; stroke-linejoin: miter; stroke-linecap: square"/>
   </g>
   <g id="patch_106">
    <path d="M 92.990625 460.597969 
L 595.190625 460.597969 
" style="fill: none; stroke: #000000; stroke-width: 0.8; stroke-linejoin: miter; stroke-linecap: square"/>
   </g>
   <g id="patch_107">
    <path d="M 92.990625 17.077969 
L 595.190625 17.077969 
" style="fill: none; stroke: #000000; stroke-width: 0.8; stroke-linejoin: miter; stroke-linecap: square"/>
   </g>
  </g>
 </g>
 <defs>
  <clipPath id="pdfeb25d3e8">
   <rect x="92.990625" y="17.077969" width="502.2" height="443.52"/>
  </clipPath>
 </defs>
</svg>
